<svg width="180" height="25" viewBox="0 0 180 25" fill="none" xmlns="http://www.w3.org/2000/svg">
                    <path d="M117.294 18.7713V2.57659H110.448V0.485596H126.833V2.57659H119.865V18.7713H117.294Z" fill="currentColor"></path>
                    <path d="M136.461 15.8498C136.444 15.987 136.46 16.1261 136.507 16.2566C136.553 16.3871 136.63 16.5057 136.73 16.6034C136.831 16.7011 136.952 16.7755 137.087 16.8208C137.221 16.8662 137.364 16.8814 137.505 16.8654C137.911 16.8582 138.31 16.7551 138.667 16.565V17.906C138.403 18.1729 138.083 18.3806 137.729 18.5146C137.375 18.6487 136.995 18.7058 136.615 18.682C135.237 18.682 134.259 17.6664 134.104 16.118C133.369 17.6378 131.472 18.7714 129.299 18.7714C126.696 18.7714 125.013 17.3982 125.013 15.1667C125.013 12.6956 127.185 11.68 130.399 11.0578L134.012 10.3426V9.83478C134.012 8.04674 132.943 6.9453 131.071 6.9453C129.141 6.9453 128.101 8.04674 127.704 9.56657L125.439 9.28764C125.961 6.84517 127.95 5.05713 131.104 5.05713C134.472 5.05713 136.461 6.72716 136.461 10.0315V15.8498ZM134.012 11.9804L131.012 12.6062C128.899 13.0533 127.553 13.4395 127.553 15.0165C127.553 16.118 128.318 16.9548 129.851 16.9548C132.207 16.9548 134.012 15.2239 134.012 12.6062V11.9804Z" fill="currentColor"></path>
                    <path d="M142.308 0.485596V18.7713H139.577V0.485596H142.308Z" fill="currentColor"></path>
                    <path d="M156.818 14.0393C156.168 16.9857 154.01 18.7714 150.782 18.7714C146.937 18.7714 144.128 16.1536 144.128 12.1071C144.128 8.00356 146.937 5.05713 150.661 5.05713C154.773 5.05713 156.872 8.00356 156.872 11.5428V12.5143H146.574C146.692 15.0428 148.495 16.825 150.803 16.825C152.962 16.825 154.233 15.7857 154.766 13.7928L156.818 14.0393ZM154.365 10.9178C154.276 8.8357 153.122 6.93213 150.668 6.93213C148.332 6.93213 146.944 8.77499 146.649 10.9178H154.365Z" fill="currentColor"></path>
                    <path d="M161.223 18.7714H158.692V5.42382H161.223V7.80732C161.864 6.18654 163.666 5.05713 165.647 5.05713C169.123 5.05713 170.526 7.37829 170.526 10.4952V18.7714H167.995V10.7042C167.995 8.4747 166.929 7.07027 164.823 7.07027C162.809 7.07027 161.223 8.65805 161.223 11.1039V18.7714Z" fill="currentColor"></path>
                    <path d="M173.337 7.538H171.436V6.23812L172.243 6.096C173.424 5.86375 173.684 5.28487 173.975 4.07511L174.349 2.31421H175.703V5.80482H179.254V7.538H175.703V15.1882C175.703 16.3148 176.164 16.8348 177.262 16.8348C178.101 16.7846 178.914 16.5261 179.628 16.0826V17.6979C178.711 18.4258 177.566 18.8053 176.396 18.769C174.609 18.769 173.337 17.9301 173.337 15.4759V7.538Z" fill="currentColor"></path>
                    <path d="M11.8781 0.485596L19.423 18.7713H15.517L13.6676 14.2529H5.79929L4.00975 18.7713H0.307617L7.79627 0.485596H11.8781ZM6.89974 11.4723H12.525L9.76159 4.62169H9.64557L6.89974 11.4723Z" fill="currentColor"></path>
                    <path d="M23.9278 18.7533H20.333V5.41927H23.9278V7.59212C24.5857 6.07837 26.268 5.05713 28.2416 5.05713C31.7861 5.05713 33.0766 7.47985 33.0766 10.4422V18.7714H29.4998V11.1664C29.4998 9.10949 28.6873 7.93253 26.9151 7.93253C25.0853 7.93253 23.9458 9.38109 23.9458 11.6227L23.9278 18.7533Z" fill="currentColor"></path>
                    <path d="M40.9598 14.592C39.9836 14.6128 39.0119 14.4528 38.0944 14.12C37.9313 14.217 37.7965 14.3549 37.7034 14.5199C37.6103 14.6849 37.5622 14.8712 37.5638 15.0604C37.5638 15.6487 37.9458 16.0326 38.9222 16.0326H44.1224C47.0161 16.0326 48.4948 17.593 48.4948 19.6782C48.4948 22.9151 44.7132 24.2571 40.6662 24.2571C37.0614 24.2571 33.9873 23.3449 33.9873 20.9356C33.9873 19.6112 35.0486 18.6708 36.5874 18.47C36.0674 18.3232 35.61 18.011 35.2848 17.581C34.9597 17.1511 34.7848 16.6271 34.7868 16.0889C34.7868 14.9125 35.6146 14.0284 36.8846 13.5282C36.327 13.17 35.8693 12.6775 35.554 12.0962C35.2386 11.515 35.0757 10.8638 35.0804 10.2032C35.0804 7.4382 37.5319 5.76159 40.9598 5.76159C42.4226 5.72415 43.863 6.12412 45.0952 6.90985C45.4882 6.35598 46.0049 5.9004 46.6046 5.57892C47.2043 5.25745 47.8707 5.07883 48.5514 5.05713V7.87496C47.7899 7.87433 47.033 7.9932 46.3086 8.22719C46.6777 8.81788 46.8715 9.50048 46.8675 10.1962C46.8534 12.9154 44.3736 14.592 40.9598 14.592ZM40.6662 22.1226C43.2663 22.1226 45.1554 21.5344 45.1554 20.2699C45.1554 19.414 44.4479 19.0899 43.2663 19.0899H38.908C37.9635 19.0899 37.1959 19.4739 37.1959 20.4143C37.1959 21.5908 38.5543 22.1226 40.6521 22.1226H40.6662ZM40.9917 7.91371C39.6615 7.91371 38.7453 8.70974 38.7453 10.2067C38.7453 11.7037 39.6615 12.5032 40.9917 12.5032C42.3218 12.5032 43.2663 11.7072 43.2663 10.2067C43.2663 8.70622 42.3359 7.91371 40.9775 7.91371H40.9917Z" fill="currentColor"></path>
                    <path d="M62.1146 14.1859C61.4155 17.0712 59.1034 18.7714 55.67 18.7714C51.5338 18.7714 48.5518 16.207 48.5518 12.1118C48.5518 8.01656 51.5629 5.05713 55.5789 5.05713C59.9482 5.05713 62.2056 8.00598 62.2056 11.5404V12.8067H52.1564C52.1999 13.7052 52.6058 14.5513 53.2867 15.1629C53.9677 15.7744 54.8693 16.1025 55.7974 16.0765C57.5924 16.0765 58.6556 15.3393 59.1726 13.8649L62.1146 14.1859ZM58.6483 10.6197C58.5282 9.11709 57.5851 7.67441 55.5462 7.67441C53.5072 7.67441 52.535 9.00069 52.2037 10.6197H58.6483Z" fill="currentColor"></path>
                    <path d="M66.7563 0.485596V18.7713H63.1152V0.485596H66.7563Z" fill="currentColor"></path>
                    <path d="M72.943 0.485596V15.7584H79.5001V18.7713H69.4873V0.485596H72.943Z" fill="currentColor"></path>
                    <path d="M80.4102 0.485596H84.0512V3.88136H80.4102V0.485596ZM84.0228 5.97374V18.7713H80.4775V5.98765L84.0228 5.97374Z" fill="currentColor"></path>
                    <path d="M88.9166 13.9834C89.1243 15.5441 90.2999 16.3421 92.0844 16.3421C93.3797 16.3421 94.4356 15.9007 94.4356 14.9544C94.4356 14.0717 93.8478 13.6868 92.556 13.482L90.497 13.1289C87.734 12.684 86.2064 11.653 86.2064 9.24486C86.2064 6.77318 88.2936 5.05713 91.5846 5.05713C95.1712 5.05713 97.3182 6.68137 97.5681 9.56971L94.6573 9.68623C94.4215 8.21382 93.4219 7.47584 91.5705 7.47584C90.3069 7.47584 89.4833 8.03727 89.4833 8.92001C89.4833 9.6262 89.955 10.0429 90.8912 10.1876L93.355 10.6008C96.0898 11.0457 97.7054 12.1932 97.7054 14.6437C97.7054 17.2955 95.4141 18.7714 92.0738 18.7714C88.7336 18.7714 86.1079 17.2955 85.8721 14.1105L88.9166 13.9834Z" fill="currentColor"></path>
                    <path d="M99.5544 8.20613H97.7051V6.17361L98.5876 6.02965C99.8497 5.83085 100.201 5.20019 100.493 4.02797L100.905 2.31421H103.049V5.80344H106.565V8.20271H103.049V14.4442C103.049 15.5308 103.548 16.0175 104.607 16.0175C105.376 15.9715 106.126 15.7671 106.808 15.4177V17.6764C105.78 18.4349 104.513 18.8204 103.225 18.7664C101.228 18.7664 99.5544 17.906 99.5544 15.2154V8.20613Z" fill="currentColor"></path>
                    </svg>





