<svg width="21" height="30" viewBox="0 0 21 30" fill="none" xmlns="http://www.w3.org/2000/svg">
<path d="M16.7859 12.4781C17.9661 12.7036 18.8028 13.2123 19.2961 14.0041C19.7895 14.7959 20.0326 16.0412 20.0255 17.74C20.0255 21.116 19.027 23.8753 17.0302 26.0179C15.0333 28.1606 12.4805 29.2403 9.3719 29.2571C8.15272 29.2589 6.9438 29.0307 5.80654 28.5841C4.702 28.1654 3.69086 27.5267 2.83246 26.7054C1.95818 25.914 1.23762 24.963 0.708115 23.9017C0.245258 22.9631 0.00286747 21.9283 0 20.8784C0 19.7267 0.243119 18.8365 0.729358 18.2079C1.32713 17.5155 2.14568 17.0594 3.04135 16.9194C2.87325 16.5322 2.72668 16.1356 2.60232 15.7317C2.5245 15.4918 2.47807 15.2425 2.46424 14.9903C2.46424 14.3856 2.77699 13.769 3.40249 13.1403C4.01855 12.5105 4.60983 12.1974 5.16216 12.1974C5.41749 12.2004 5.67077 12.2441 5.91276 12.3269C6.2301 12.4381 6.53508 12.5829 6.82269 12.7588C5.81008 9.84115 5.07246 7.58811 4.60983 5.99971C4.14955 4.4125 3.90171 3.31478 3.90171 2.71373C3.90171 1.88233 4.0398 1.24889 4.45404 0.752213C4.9568 0.143964 5.71095 0 6.43677 0C7.90256 0 8.42303 1.27768 10.9545 8.4399C11.3086 9.40086 11.5352 10.1459 11.7087 10.6678C11.8538 10.2539 12.0627 9.6636 12.3212 8.90059C14.2189 3.32917 15.0262 0.543464 17.2214 0.543464C17.5238 0.530471 17.8252 0.586063 18.1039 0.70621C18.3825 0.826356 18.6313 1.00804 18.8323 1.23809C19.2536 1.75926 19.4683 2.42157 19.4342 3.09523C19.4342 3.68548 19.2147 4.76162 18.7721 6.33443C18.3296 7.90724 17.6816 9.94433 16.7859 12.4781ZM2.62357 20.6733C2.80768 20.9036 3.0626 21.2383 3.39187 21.6774C4.26285 22.8987 5.06656 23.5082 5.803 23.5058C6.04818 23.5084 6.28641 23.423 6.47571 23.2646C6.55982 23.2101 6.63041 23.1366 6.682 23.0499C6.73359 22.9631 6.76477 22.8654 6.77312 22.7643C6.71583 22.4039 6.58038 22.0609 6.37658 21.7602C6.0548 21.2036 5.69141 20.673 5.28962 20.173C4.89814 19.637 4.46224 19.1361 3.98669 18.6758C3.76603 18.4285 3.4709 18.2627 3.14757 18.2043C2.89216 18.2201 2.64392 18.2963 2.42263 18.4269C2.20134 18.5575 2.01311 18.7389 1.87296 18.9565C1.48229 19.4629 1.2759 20.091 1.28877 20.7345C1.30616 21.3685 1.44444 21.9931 1.69593 22.5736C1.9957 23.3033 2.3911 23.9886 2.87141 24.6107C3.62785 25.6517 4.62174 26.4903 5.7676 27.0545C6.96108 27.6329 8.26935 27.9247 9.59142 27.9075C10.8138 27.9313 12.0264 27.6819 13.1436 27.1769C14.2607 26.6719 15.2551 25.9236 16.0565 24.985C17.7914 23.0343 18.6576 20.5929 18.6553 17.6608C18.6746 16.9357 18.6092 16.2108 18.4606 15.5013C18.3691 15.0547 18.1336 14.6519 17.7914 14.3568C17.2532 13.8985 16.2029 13.4894 14.6403 13.1295C13.0343 12.7635 11.3931 12.5812 9.7472 12.5861C9.39524 12.5544 9.04262 12.639 8.74168 12.8272C8.63351 12.9324 8.55048 13.0614 8.49892 13.2042C8.44737 13.3471 8.42868 13.5001 8.44427 13.6514C8.44427 14.5632 8.94467 15.223 9.94547 15.6309C10.9463 16.0388 12.5667 16.2428 14.8067 16.2428H15.6175C15.7029 16.2407 15.7877 16.2587 15.8651 16.2956C15.9425 16.3324 16.0105 16.387 16.0636 16.4551C16.192 16.6426 16.2701 16.861 16.2902 17.0886C15.8716 17.4055 15.4036 17.6488 14.9058 17.8084C14.3421 18.0145 13.8048 18.2888 13.3055 18.6254C12.5378 19.1881 11.8889 19.9016 11.3971 20.7237C10.9599 21.4106 10.7151 22.2057 10.689 23.0235C10.7066 23.5692 10.8094 24.1086 10.9935 24.6215C11.1367 24.9942 11.24 25.3816 11.3015 25.7768V25.9172L11.2626 26.0971C10.9631 26.0673 10.6772 25.9555 10.4353 25.7736C10.1934 25.5917 10.0045 25.3465 9.88883 25.0642C9.51816 24.2503 9.34455 23.3581 9.38252 22.462V22.2785C9.29381 22.3638 9.19065 22.432 9.07803 22.48C8.97419 22.521 8.86369 22.5417 8.7523 22.5412C8.63368 22.5422 8.5152 22.5326 8.39824 22.5124C8.29203 22.4908 8.17165 22.462 8.04419 22.4224C8.08313 22.5642 8.11271 22.7085 8.1327 22.8543C8.15122 22.9638 8.16187 23.0744 8.16456 23.1854C8.16569 23.4274 8.11496 23.6667 8.01591 23.8867C7.91686 24.1068 7.77186 24.3022 7.59099 24.4595C7.2216 24.8098 6.73295 25.0007 6.22787 24.9922C5.39702 24.9922 4.55318 24.5807 3.69636 23.7577C2.83954 22.9347 2.41113 22.1273 2.41113 21.3355C2.40982 21.203 2.4265 21.071 2.4607 20.9432C2.4977 20.841 2.55702 20.7488 2.63419 20.6733H2.62357ZM8.55049 21.1555C8.6687 21.1529 8.78488 21.1238 8.89076 21.0703C8.99663 21.0168 9.08959 20.9402 9.16301 20.846C9.33819 20.6668 9.43841 20.4256 9.44271 20.173C9.33939 19.5584 9.15602 18.9605 8.89746 18.395C8.52986 17.4434 8.08209 16.5258 7.55913 15.6525C7.24637 15.0898 6.85255 14.5779 6.39074 14.1337C6.09893 13.8386 5.71114 13.6619 5.30024 13.637C5.11959 13.6567 4.94458 13.7127 4.78535 13.8017C4.62612 13.8906 4.48583 14.0108 4.37261 14.1553C4.08931 14.4104 3.9121 14.7656 3.87693 15.1486C3.93908 15.659 4.1081 16.1499 4.37261 16.5883C4.75281 17.311 5.19597 17.9975 5.69678 18.6398C6.17501 19.3144 6.72475 19.9336 7.33607 20.4861C7.84946 20.936 8.26724 21.1555 8.56111 21.1555H8.55049ZM10.4872 11.438L8.36284 5.16832C8.02506 4.0908 7.59501 3.04545 7.07761 2.04429C6.77312 1.55841 6.44385 1.32447 6.08979 1.32447C5.96083 1.32067 5.83279 1.34767 5.71596 1.4033C5.59913 1.45894 5.49676 1.54165 5.41708 1.64479C5.23406 1.89306 5.14259 2.19876 5.15862 2.50858C5.15862 3.12282 5.39466 4.19416 5.86673 5.72258C6.33881 7.251 7.0304 9.2533 7.94151 11.7295C8.01703 11.5847 8.14345 11.4742 8.29557 11.42C8.4852 11.3519 8.68591 11.3213 8.88684 11.33L9.36128 11.348C9.57017 11.366 9.95964 11.3984 10.4978 11.4524L10.4872 11.438ZM12.7213 17.5276C12.181 17.5017 11.6429 17.4404 11.1103 17.3441C10.616 17.254 10.1303 17.1203 9.65869 16.9446C9.86758 17.3729 10.0588 17.8012 10.2216 18.2295C10.3829 18.6428 10.5189 19.0659 10.6288 19.4964C10.9344 19.1125 11.2669 18.7517 11.6237 18.4166C11.9681 18.0937 12.3388 17.8012 12.7319 17.542L12.7213 17.5276ZM15.3519 12.129C16.2324 9.69359 16.9204 7.68049 17.4161 6.08969C17.9118 4.50248 18.1561 3.53072 18.1561 3.16721C18.176 2.84682 18.09 2.52885 17.9118 2.26384C17.831 2.15919 17.7269 2.07556 17.6081 2.01986C17.4893 1.96417 17.3592 1.938 17.2284 1.94352C16.8744 1.94352 16.4849 2.25304 16.1025 2.87568C15.578 3.82928 15.1543 4.83664 14.8385 5.88094L12.87 11.6935L15.3519 12.129Z" fill="currentColor"></path>
</svg>