<svg width="32" height="32" viewBox="0 0 32 32" fill="none" xmlns="http://www.w3.org/2000/svg">
<path d="M11.92 24.9393C13.6091 24.95 15.2836 24.6251 16.8462 23.9836C18.4088 23.3421 19.8285 22.3967 21.0229 21.2023C22.2174 20.0078 23.1627 18.5881 23.8043 17.0255C24.4458 15.4629 24.7706 13.7885 24.76 12.0993V11.5093C25.6356 10.8678 26.3935 10.0795 27 9.17933C26.1755 9.53993 25.3031 9.77908 24.41 9.88933C25.3569 9.32511 26.0674 8.437 26.41 7.38933C25.5275 7.91877 24.5598 8.29097 23.55 8.48933C22.8699 7.7647 21.97 7.28439 20.9895 7.12272C20.0089 6.96105 19.0024 7.12703 18.1257 7.59499C17.249 8.06294 16.551 8.80678 16.1396 9.71141C15.7282 10.616 15.6264 11.631 15.85 12.5993C14.056 12.5113 12.3007 12.0464 10.6984 11.2348C9.096 10.4233 7.68254 9.28341 6.55 7.88933C5.97892 8.88051 5.80583 10.0517 6.06576 11.1657C6.32569 12.2797 6.99923 13.2533 7.95 13.8893C7.24861 13.8623 6.56345 13.6704 5.95 13.3293V13.3793C5.94377 14.4152 6.29272 15.4219 6.9387 16.2316C7.58469 17.0414 8.48867 17.6053 9.5 17.8293C8.84764 18.0048 8.16429 18.0321 7.5 17.9093C7.79278 18.7927 8.35168 19.5639 9.10005 20.1171C9.84841 20.6703 10.7496 20.9785 11.68 20.9993C10.0892 22.2799 8.11209 22.9847 6.07 22.9993C5.71195 22.989 5.35475 22.9589 5 22.9093C7.06696 24.2262 9.4692 24.9205 11.92 24.9093" fill="currentColor"></path>
</svg>